<svg xmlns="http://www.w3.org/2000/svg" xmlns:xlink="http://www.w3.org/1999/xlink" width="500" zoomAndPan="magnify" viewBox="0 0 375 374.999991" height="500" preserveAspectRatio="xMidYMid meet" version="1.0"><defs><g/><clipPath id="id1"><path d="M 141.683594 114.941406 L 233.183594 114.941406 L 233.183594 206.441406 L 141.683594 206.441406 Z M 141.683594 114.941406 " clip-rule="nonzero"/></clipPath></defs><g clip-path="url(#id1)"><path fill="rgb(100%, 100%, 100%)" d="M 212.722656 114.941406 C 208.53125 114.941406 206.675781 116.226562 204.65625 117.722656 C 201.402344 117.402344 197.691406 118.703125 195.804688 122.15625 C 194.332031 124.847656 191.648438 129.75 191.3125 133.289062 C 191.269531 133.511719 191.246094 133.742188 191.246094 133.972656 C 191.246094 133.980469 191.246094 133.992188 191.246094 134.003906 C 191.246094 134.507812 191.34375 134.992188 191.535156 135.460938 C 191.730469 135.929688 192.003906 136.339844 192.363281 136.699219 C 192.71875 137.054688 193.132812 137.332031 193.601562 137.523438 C 194.066406 137.71875 194.554688 137.816406 195.058594 137.816406 C 189.632812 155.75 156.933594 153.136719 156.933594 187.378906 L 156.933594 198.308594 C 154.851562 197.75 153.277344 196.773438 152.109375 195.480469 C 150.3125 193.492188 149.308594 190.636719 149.308594 187.378906 C 149.3125 187.121094 149.289062 186.871094 149.242188 186.617188 C 149.195312 186.367188 149.125 186.125 149.027344 185.886719 C 148.933594 185.652344 148.8125 185.425781 148.671875 185.214844 C 148.53125 185.003906 148.371094 184.804688 148.191406 184.625 C 148.007812 184.445312 147.8125 184.285156 147.601562 184.144531 C 147.386719 184.003906 147.164062 183.886719 146.925781 183.789062 C 146.691406 183.695312 146.445312 183.625 146.195312 183.578125 C 145.945312 183.53125 145.691406 183.507812 145.4375 183.511719 C 144.933594 183.519531 144.449219 183.625 143.984375 183.824219 C 143.519531 184.023438 143.113281 184.304688 142.761719 184.667969 C 142.410156 185.03125 142.140625 185.445312 141.953125 185.914062 C 141.765625 186.386719 141.675781 186.871094 141.683594 187.378906 C 141.683594 192.210938 143.183594 196.980469 146.449219 200.59375 C 149.714844 204.207031 154.738281 206.441406 160.746094 206.441406 L 168.371094 206.441406 L 168.371094 202.628906 C 168.371094 187.378906 175.992188 183.5625 180.242188 181.390625 C 177.671875 179.640625 175.996094 177.015625 175.996094 174.035156 C 175.996094 172.601562 176.402344 171.25 177.082031 170.027344 C 176.589844 168.441406 175.992188 164.382812 175.996094 160.691406 C 180.707031 160.691406 184.222656 164.925781 184.222656 164.925781 C 185.25 164.675781 186.3125 164.503906 187.433594 164.503906 C 188.554688 164.503906 189.617188 164.675781 190.644531 164.925781 C 190.644531 164.925781 193.3125 160.691406 198.871094 160.691406 C 198.875 164.382812 198.277344 168.441406 197.785156 170.027344 C 198.464844 171.25 198.871094 172.601562 198.871094 174.035156 C 198.871094 177.226562 196.964844 180.039062 194.070312 181.769531 C 194.625 183.453125 195.058594 189.171875 195.058594 191.191406 C 195.058594 194.789062 194.125 198.496094 193.597656 200.75 C 194.5 201.761719 195.058594 203.078125 195.058594 204.535156 L 195.058594 206.441406 L 217.933594 206.441406 C 220.042969 206.441406 221.746094 204.730469 221.746094 202.628906 C 221.746094 200.523438 220.042969 198.816406 217.933594 198.816406 L 216.40625 198.816406 L 210.6875 170.214844 C 212.800781 167.597656 214.121094 164.316406 214.121094 160.691406 C 214.121094 141.542969 215.15625 137.816406 220.726562 137.816406 L 223.652344 137.816406 C 224.160156 137.8125 224.660156 137.746094 225.148438 137.613281 C 225.640625 137.476562 226.105469 137.28125 226.542969 137.023438 C 226.980469 136.765625 227.375 136.457031 227.730469 136.089844 C 228.085938 135.726562 228.386719 135.324219 228.632812 134.878906 L 228.648438 134.875 L 228.746094 134.6875 C 228.75 134.679688 228.75 134.671875 228.753906 134.664062 L 232.675781 127.046875 C 232.808594 126.859375 232.910156 126.660156 232.992188 126.445312 C 233.074219 126.230469 233.128906 126.011719 233.160156 125.785156 C 233.1875 125.558594 233.1875 125.332031 233.164062 125.105469 C 233.136719 124.878906 233.085938 124.660156 233.007812 124.445312 C 232.929688 124.230469 232.824219 124.027344 232.699219 123.839844 C 232.574219 123.648438 232.425781 123.476562 232.257812 123.324219 C 232.089844 123.167969 231.90625 123.035156 231.707031 122.925781 C 231.507812 122.816406 231.296875 122.730469 231.078125 122.667969 L 231.007812 122.648438 C 231.003906 122.648438 231 122.648438 230.996094 122.648438 L 221.746094 119.839844 C 221.746094 119.839844 219.878906 114.941406 212.722656 114.941406 Z M 181.714844 172.128906 C 181.460938 172.128906 181.21875 172.175781 180.984375 172.273438 C 180.753906 172.367188 180.546875 172.507812 180.367188 172.683594 C 180.1875 172.863281 180.050781 173.070312 179.953125 173.304688 C 179.855469 173.539062 179.808594 173.78125 179.808594 174.035156 C 179.808594 174.285156 179.855469 174.53125 179.953125 174.761719 C 180.050781 174.996094 180.1875 175.203125 180.367188 175.382812 C 180.546875 175.558594 180.753906 175.699219 180.984375 175.792969 C 181.21875 175.890625 181.460938 175.941406 181.714844 175.941406 C 181.96875 175.941406 182.210938 175.890625 182.445312 175.792969 C 182.679688 175.699219 182.882812 175.558594 183.0625 175.382812 C 183.242188 175.203125 183.378906 174.996094 183.476562 174.761719 C 183.574219 174.53125 183.621094 174.285156 183.621094 174.035156 C 183.621094 173.78125 183.574219 173.539062 183.476562 173.304688 C 183.378906 173.070312 183.242188 172.863281 183.0625 172.683594 C 182.882812 172.507812 182.679688 172.367188 182.445312 172.273438 C 182.210938 172.175781 181.96875 172.128906 181.714844 172.128906 Z M 193.152344 172.128906 C 192.898438 172.128906 192.65625 172.175781 192.421875 172.273438 C 192.191406 172.367188 191.984375 172.507812 191.804688 172.683594 C 191.625 172.863281 191.488281 173.070312 191.390625 173.304688 C 191.292969 173.539062 191.246094 173.78125 191.246094 174.035156 C 191.246094 174.285156 191.292969 174.53125 191.390625 174.761719 C 191.488281 174.996094 191.625 175.203125 191.804688 175.382812 C 191.984375 175.558594 192.191406 175.699219 192.421875 175.792969 C 192.65625 175.890625 192.898438 175.941406 193.152344 175.941406 C 193.40625 175.941406 193.648438 175.890625 193.882812 175.792969 C 194.117188 175.699219 194.320312 175.558594 194.5 175.382812 C 194.679688 175.203125 194.816406 174.996094 194.914062 174.761719 C 195.011719 174.53125 195.058594 174.285156 195.058594 174.035156 C 195.058594 173.78125 195.011719 173.539062 194.914062 173.304688 C 194.816406 173.070312 194.679688 172.863281 194.5 172.683594 C 194.320312 172.507812 194.117188 172.367188 193.882812 172.273438 C 193.648438 172.175781 193.40625 172.128906 193.152344 172.128906 Z M 193.152344 172.128906 " fill-opacity="1" fill-rule="nonzero"/></g><g fill="rgb(100%, 100%, 100%)" fill-opacity="1"><g transform="translate(99.391297, 248.837187)"><g><path d="M 33.105469 -15.21875 C 33.105469 -23.914062 26.050781 -30.890625 17.394531 -30.890625 C 8.738281 -30.890625 1.804688 -23.914062 1.804688 -15.21875 C 1.804688 -6.5625 8.738281 0.410156 17.394531 0.410156 C 26.050781 0.410156 33.105469 -6.5625 33.105469 -15.21875 Z M 27.074219 -15.21875 C 27.074219 -9.722656 22.929688 -5.332031 17.394531 -5.332031 C 11.894531 -5.332031 7.792969 -9.722656 7.792969 -15.21875 C 7.792969 -20.757812 11.894531 -25.144531 17.394531 -25.144531 C 22.929688 -25.144531 27.074219 -20.757812 27.074219 -15.21875 Z M 27.074219 -15.21875 "/></g></g></g><g fill="rgb(100%, 100%, 100%)" fill-opacity="1"><g transform="translate(134.378999, 248.837187)"><g><path d="M 6.769531 -20.140625 L 4.554688 -20.140625 C 3.734375 -20.140625 3.324219 -19.691406 3.324219 -18.910156 L 3.324219 -0.902344 C 3.324219 -0.246094 3.488281 0 4.308594 0 L 8 0 C 8.820312 0 9.023438 -0.207031 9.023438 -0.902344 L 9.023438 -11.445312 C 9.3125 -13.414062 11.566406 -15.015625 13.332031 -15.015625 C 15.464844 -15.015625 17.066406 -13.539062 17.066406 -11.320312 L 17.066406 -0.945312 C 17.066406 -0.207031 17.148438 0 18.007812 0 L 21.78125 0 C 22.4375 0 22.765625 -0.246094 22.765625 -0.984375 L 22.765625 -12.265625 C 22.765625 -16.984375 19.855469 -20.386719 14.769531 -20.386719 C 12.101562 -20.386719 9.84375 -18.953125 8.613281 -17.515625 C 8.246094 -18.953125 8.410156 -20.140625 6.769531 -20.140625 Z M 6.769531 -20.140625 "/></g></g></g><g fill="rgb(100%, 100%, 100%)" fill-opacity="1"><g transform="translate(160.096804, 248.837187)"><g><path d="M 3.078125 -0.902344 C 3.078125 -0.328125 3.363281 0 3.9375 0 L 7.753906 0 C 8.328125 0 8.65625 -0.371094 8.65625 -0.902344 L 8.65625 -29.535156 C 8.65625 -30.070312 8.285156 -30.4375 7.753906 -30.4375 L 3.9375 -30.4375 C 3.40625 -30.4375 3.078125 -30.109375 3.078125 -29.535156 Z M 3.078125 -0.902344 "/></g></g></g><g fill="rgb(100%, 100%, 100%)" fill-opacity="1"><g transform="translate(171.663662, 248.837187)"><g><path d="M 21.90625 -18.378906 C 22.027344 -18.746094 22.070312 -18.953125 22.070312 -19.117188 C 22.070312 -19.691406 21.78125 -20.101562 20.921875 -20.101562 L 17.394531 -20.101562 C 16.695312 -20.101562 16.246094 -19.855469 16.039062 -19.199219 L 11.609375 -7.179688 L 7.136719 -19.15625 C 6.972656 -19.691406 6.523438 -20.101562 5.824219 -20.101562 L 2.257812 -20.101562 C 1.519531 -20.101562 1.148438 -19.773438 1.148438 -19.199219 C 1.148438 -19.074219 1.148438 -18.828125 1.3125 -18.5 L 8.777344 -0.207031 L 6.195312 6.726562 C 6.152344 6.890625 6.113281 7.097656 6.113281 7.261719 C 6.113281 7.917969 6.644531 8.121094 7.261719 8.121094 L 10.582031 8.121094 C 11.117188 8.121094 11.609375 7.835938 11.894531 7.21875 Z M 21.90625 -18.378906 "/></g></g></g><g fill="rgb(100%, 100%, 100%)" fill-opacity="1"><g transform="translate(194.592295, 248.837187)"><g><path d="M 3.324219 -0.820312 C 3.324219 -0.289062 3.570312 0 4.101562 0 L 8.449219 0 C 8.984375 0 9.269531 -0.289062 9.269531 -0.820312 L 9.269531 -10.953125 L 15.957031 -10.953125 C 21.453125 -10.953125 25.515625 -15.589844 25.515625 -20.632812 C 25.515625 -25.679688 21.578125 -30.4375 16.039062 -30.4375 L 4.101562 -30.4375 C 3.652344 -30.4375 3.324219 -30.152344 3.324219 -29.617188 Z M 14.851562 -25.226562 C 17.558594 -25.226562 19.445312 -23.136719 19.445312 -20.632812 C 19.445312 -18.089844 17.558594 -16.121094 14.851562 -16.121094 L 9.269531 -16.121094 L 9.269531 -25.226562 Z M 14.851562 -25.226562 "/></g></g></g><g fill="rgb(100%, 100%, 100%)" fill-opacity="1"><g transform="translate(220.392136, 248.837187)"><g><path d="M 7.507812 -8.164062 L 20.265625 -8.164062 C 21.453125 -8.164062 21.699219 -9.066406 21.699219 -11.199219 C 21.699219 -16.328125 17.3125 -20.550781 12.019531 -20.550781 C 6.480469 -20.550781 1.804688 -15.671875 1.804688 -10.007812 C 1.804688 -4.183594 6.5625 0.492188 12.265625 0.492188 C 14.605469 0.492188 16.695312 -0.328125 18.417969 -1.640625 C 18.746094 -1.929688 19.074219 -2.214844 19.074219 -2.625 C 19.074219 -2.789062 18.992188 -2.953125 18.871094 -3.160156 L 17.351562 -5.578125 C 17.148438 -5.867188 16.941406 -5.949219 16.738281 -5.949219 C 16.410156 -5.949219 16.039062 -5.578125 15.589844 -5.375 C 14.5625 -4.800781 13.457031 -4.390625 12.304688 -4.390625 C 10.089844 -4.390625 7.753906 -5.785156 7.507812 -8.164062 Z M 7.507812 -12.101562 C 7.792969 -14.195312 9.886719 -15.875 11.894531 -15.875 C 14.359375 -15.875 16.246094 -14.152344 16.328125 -12.101562 Z M 7.507812 -12.101562 "/></g></g></g><g fill="rgb(100%, 100%, 100%)" fill-opacity="1"><g transform="translate(243.853991, 248.837187)"><g><path d="M 3.363281 -20.140625 L 2.257812 -20.140625 C 1.4375 -20.140625 1.066406 -19.730469 1.066406 -18.953125 L 1.066406 -16.695312 C 1.066406 -15.835938 1.4375 -15.425781 2.257812 -15.425781 L 3.363281 -15.425781 L 3.363281 -1.191406 C 3.363281 -0.410156 3.570312 0 4.390625 0 L 7.835938 0 C 8.65625 0 8.941406 -0.410156 8.941406 -1.191406 L 8.941406 -15.425781 L 11.402344 -15.425781 C 12.058594 -15.425781 12.511719 -15.835938 12.511719 -16.695312 L 12.511719 -18.953125 C 12.511719 -19.730469 12.058594 -20.140625 11.402344 -20.140625 L 8.941406 -20.140625 L 8.941406 -26.132812 C 8.941406 -26.828125 8.738281 -27.363281 7.957031 -27.363281 C 7.875 -27.363281 7.753906 -27.363281 7.671875 -27.320312 L 4.636719 -26.871094 C 3.773438 -26.789062 3.363281 -26.335938 3.363281 -25.679688 Z M 3.363281 -20.140625 "/></g></g></g><g fill="rgb(100%, 100%, 100%)" fill-opacity="1"><g transform="translate(257.307646, 248.837187)"><g><path d="M 0.984375 -3.488281 C 1.109375 -3.117188 1.3125 -2.832031 1.601562 -2.503906 C 3.363281 -0.617188 5.988281 0.492188 8.859375 0.492188 C 13.167969 0.492188 17.105469 -1.722656 17.105469 -5.90625 C 17.105469 -9.515625 14.359375 -11.15625 10.171875 -12.550781 C 8.203125 -13.167969 7.015625 -13.621094 7.015625 -14.605469 C 7.015625 -15.628906 8.121094 -15.957031 9.148438 -15.957031 C 10.707031 -15.957031 11.691406 -15.179688 12.46875 -14.523438 C 12.71875 -14.277344 12.921875 -14.152344 13.167969 -14.152344 C 13.578125 -14.152344 16.367188 -16.328125 16.367188 -16.820312 C 16.367188 -17.1875 16.121094 -17.558594 15.628906 -18.050781 C 13.988281 -19.527344 11.773438 -20.511719 9.066406 -20.511719 C 4.429688 -20.511719 1.394531 -17.804688 1.394531 -14.6875 C 1.394531 -11.484375 3.40625 -9.597656 8.164062 -8.328125 C 9.023438 -8.082031 11.238281 -7.34375 11.238281 -6.152344 C 11.238281 -5.128906 10.664062 -4.183594 8.820312 -4.183594 C 7.136719 -4.183594 5.824219 -5.539062 4.800781 -6.398438 C 4.554688 -6.5625 4.347656 -6.6875 4.144531 -6.6875 C 3.980469 -6.6875 3.773438 -6.605469 3.691406 -6.480469 L 1.191406 -4.472656 C 0.945312 -4.308594 0.902344 -4.0625 0.902344 -3.898438 C 0.902344 -3.734375 0.902344 -3.609375 0.984375 -3.488281 Z M 0.984375 -3.488281 "/></g></g></g></svg>